<svg xmlns="http://www.w3.org/2000/svg" width="36" height="36" viewBox="0 0 36 36">
  <path id="Combined_Shape" data-name="Combined Shape" d="M4.995,36a1.8,1.8,0,0,1-1.206-3.139L8.748,28.4a1.21,1.21,0,0,1,1.6,0l0,0,.521-.521a.6.6,0,0,0,.18-.428.6.6,0,0,0-.18-.42L9.066,25.074A2.978,2.978,0,0,1,8.327,22.9a3.3,3.3,0,0,1,1.065-2.28c.017-.014.034-.029.053-.041a1.222,1.222,0,0,1,1.548.157L15.2,25.159a2.134,2.134,0,0,0,1.273.616,1.482,1.482,0,0,0,.236.025h2.454a1.092,1.092,0,0,0,.2-.022,2.193,2.193,0,0,0,1.324-.638l.9-.948V20.7a2.072,2.072,0,0,1,.614-1.487,2.183,2.183,0,0,1,2.973,0,2.082,2.082,0,0,1,.464.713l1.016-1.066a1.851,1.851,0,0,1,1.3-.579h.054a1.674,1.674,0,0,1,1.157.464,2.339,2.339,0,0,1,.083,3.267l-3.847,4.108a2.417,2.417,0,0,1-.2.279,34.555,34.555,0,0,0-2.2,2.85,5.973,5.973,0,0,1-4.892,2.55h-1.14a1.213,1.213,0,0,0-.85.345l-.714.7a1.183,1.183,0,0,1-.041,1.74l-1.066.96A1.8,1.8,0,0,1,13.1,36Zm-.4-2.248a.6.6,0,0,0,.4,1.048h8.122a.587.587,0,0,0,.4-.154l1.066-.96,0,0-.434-.371L9.981,29.671l-.431-.378ZM9.526,22.958a1.772,1.772,0,0,0,.424,1.3L11.734,26.2a1.744,1.744,0,0,1,.515,1.247,1.783,1.783,0,0,1-.531,1.282l-.464.464,3.258,2.855.78-.76a2.406,2.406,0,0,1,1.685-.686h1.137a4.776,4.776,0,0,0,3.909-2.034A35.8,35.8,0,0,1,24.3,25.618a.8.8,0,0,0,.1-.136c.008-.015.018-.031.029-.048a1.138,1.138,0,0,0,.17-.6V20.7a.9.9,0,0,0-.262-.638.94.94,0,0,0-1.275,0,.9.9,0,0,0-.263.638v3.731a.6.6,0,0,1-.165.414l-1.075,1.129a3.38,3.38,0,0,1-2.014.992,2.215,2.215,0,0,1-.376.034H16.713a2.451,2.451,0,0,1-.411-.04,3.315,3.315,0,0,1-1.965-.97l-4.206-4.424A2.108,2.108,0,0,0,9.526,22.958Zm18.012-3.273L25.8,21.51v2.442l2.587-2.763a1.12,1.12,0,0,0-.029-1.57A.522.522,0,0,0,28,19.479h0A.665.665,0,0,0,27.537,19.685ZM11.573,34.025l-1.059-1.06a.6.6,0,0,1,.848-.848l1.06,1.059a.6.6,0,0,1-.849.849ZM32.466,20.965l-1-.666a.6.6,0,1,1,.667-1l1,.667a.6.6,0,1,1-.667,1ZM2.622,20.642a.6.6,0,0,1,.24-.673l1-.667a.6.6,0,0,1,.667,1l-1,.666a.6.6,0,0,1-.907-.324ZM5.4,17.4a1.2,1.2,0,0,1-1.2-1.2V13.938A2.4,2.4,0,0,1,6,11.623V6a.6.6,0,0,1,.364-.552l12.6-5.4A.588.588,0,0,1,19.2,0a.6.6,0,0,1,.237.049l12.6,5.4a.6.6,0,0,1,0,1.1L28.8,7.938v4.02c0,2.534-4.576,4.842-9.6,4.842s-9.6-2.308-9.6-4.842V7.938L7.2,6.909v4.714A2.4,2.4,0,0,1,9,13.938V16.2a1.2,1.2,0,0,1-1.2,1.2Zm0-3.461V16.2H7.8V13.938a1.2,1.2,0,1,0-2.4,0Zm5.4-1.98c0,1.433,3.607,3.641,8.4,3.641s8.4-2.209,8.4-3.641V8.453l-8.163,3.5A.6.6,0,0,1,19.2,12a.588.588,0,0,1-.236-.049L10.8,8.453ZM9.522,6.6l.906.388.009,0,8.76,3.755,8.761-3.755.009,0L30.273,6,19.2,1.253,9.521,5.4H19.2a.6.6,0,1,1,0,1.2H9.522ZM35.28,14.783,34.1,14.549h0a.6.6,0,0,1,.234-1.177l1.177.234A.6.6,0,0,1,35.4,14.8.77.77,0,0,1,35.28,14.783ZM0,14.252a.6.6,0,0,1,.481-.646l1.177-.234a.6.6,0,0,1,.234,1.177l-1.177.234A.76.76,0,0,1,.6,14.8.6.6,0,0,1,0,14.252ZM34.219,8.24h0ZM1.658,8.228.481,7.994h0A.6.6,0,1,1,.717,6.817l1.177.234a.6.6,0,0,1-.237,1.177ZM33.625,7.7a.6.6,0,0,1,.481-.647l1.177-.234a.6.6,0,0,1,.234,1.177l-1.177.234a.6.6,0,0,1-.715-.53ZM3.86,2.3l-1-.667a.6.6,0,1,1,.667-1l1,.666a.6.6,0,1,1-.667,1Zm27.366-.324a.6.6,0,0,1,.241-.674l1-.666a.6.6,0,1,1,.667,1l-1,.667a.6.6,0,0,1-.908-.324Z" transform="translate(0)" fill="#fff"/>
</svg>
