<svg xmlns="http://www.w3.org/2000/svg" width="36" height="36" viewBox="0 0 36 36">
  <path id="Fill_1" data-name="Fill 1" d="M18.555,36h-.107a1.768,1.768,0,0,1-1.168-.441l-.515-.455a1.805,1.805,0,0,1-2.823-1.434A1.813,1.813,0,0,1,12.2,31.929a1.814,1.814,0,0,1-1.742-1.742,1.812,1.812,0,0,1-1.743-1.751L6.963,27.384l-.139.487H5.712L0,25.967V13.936H1.9l2.893,1.687,1.6-.4v-.279a4.067,4.067,0,0,1-1.742-3.332V10.452A4.067,4.067,0,0,1,8.712,6.387l.123,0,.034,0,.036,0L8.282,4.91l3.073-3.073,1.813,1.18a9.838,9.838,0,0,1,2.174-.9L15.788,0h4.425l.447,2.115a9.817,9.817,0,0,1,2.174.9l1.813-1.18L27.721,4.91,27.087,6.4c.1,0,.178-.007.251-.007h.077a4.172,4.172,0,0,1,3.94,4.208v1.015a4.072,4.072,0,0,1-1.742,3.333v.278l2.446.612a2.873,2.873,0,0,1,.692.284L34.695,15.1H36v8.488l-10.461,5.23a1.625,1.625,0,0,1,.009.175A1.794,1.794,0,0,1,23.8,30.77a1.776,1.776,0,0,1-1.741,1.744,1.778,1.778,0,0,1-1.742,1.741A1.772,1.772,0,0,1,18.555,36Zm-.139-2.671a1.8,1.8,0,0,1-.366.539l-.436.437.435.382a.6.6,0,0,0,.4.152h.107a.606.606,0,0,0,.388-1.071l-.527-.439h0Zm-1.647-1.393a.656.656,0,0,0-.461.191l-1.021,1.021a.651.651,0,1,0,.921.921l1.021-1.021a.651.651,0,0,0-.46-1.111Zm-5.226-6.387A1.8,1.8,0,0,1,13.348,27.3a1.813,1.813,0,0,1,1.741,1.742,1.814,1.814,0,0,1,1.742,1.742A1.805,1.805,0,0,1,18.391,31.8l1.3,1.08a.958.958,0,0,0,.611.221.605.605,0,0,0,.388-1.07l-3.058-2.548.744-.892,3.154,2.627a.607.607,0,0,0,.388.141h.126a.606.606,0,0,0,.389-1.071l-3.057-2.548.743-.893,3.149,2.624a.623.623,0,0,0,.4.145h.1a.625.625,0,0,0,.418-1.089l-4.906-4.415a1.2,1.2,0,0,0-1.392-.134l-2.162,1.3A1.945,1.945,0,0,1,12.775,23.6v-.115a1.936,1.936,0,0,1,1.074-1.74l2.9-1.45-.855-.274a5.981,5.981,0,0,0-3.116-.14l-3.919.871L7.295,26.229,9.077,27.3l.009-.013A1.726,1.726,0,0,1,9.24,27.1l1.021-1.021A1.825,1.825,0,0,1,11.543,25.548Zm3.484,4.645a.652.652,0,0,0-.46.191L13.545,31.4a.659.659,0,0,0-.19.461.651.651,0,0,0,1.111.46L15.487,31.3a.652.652,0,0,0-.461-1.111Zm-1.741-1.741a.656.656,0,0,0-.461.191L11.8,29.663a.651.651,0,1,0,.921.921l1.021-1.021a.651.651,0,0,0-.46-1.111Zm-1.742-1.742a.652.652,0,0,0-.46.191l-1.022,1.021a.659.659,0,0,0-.19.461.651.651,0,0,0,1.111.46L12,27.821a.652.652,0,0,0-.461-1.112Zm6.944-4.064a2.333,2.333,0,0,1,1.565.6l4.905,4.415c.032.029.066.061.1.1l9.782-4.892V16.333L23.95,22.064l-.884-.022L19.417,21a2.478,2.478,0,0,0-.685-.1,2.526,2.526,0,0,0-1.125.263l-3.239,1.619a.78.78,0,0,0-.433.7V23.6a.783.783,0,0,0,1.185.672l2.164-1.3A2.333,2.333,0,0,1,18.487,22.645ZM6.8,18.141,4.757,26.329l1.143.381h.049l2.18-7.629v-.166ZM1.161,15.1V25.13l2.492.831,2.108-8.428L1.585,15.1H1.161Zm12.912,3.485a7.1,7.1,0,0,1,2.174.338l2.629.84a3.665,3.665,0,0,1,.861.123l3.57,1.021h.355l.144-.076V18.652a1.741,1.741,0,0,0-1.319-1.691l-3.326-.831,0-1.838.291-.167A2.915,2.915,0,0,0,20.9,11.613V10.6A3,3,0,0,0,18.09,7.55l-.11,0a2.9,2.9,0,0,0-2.883,2.9v1.161a2.912,2.912,0,0,0,1.453,2.512l.29.167v1.839l-3.326.831a1.741,1.741,0,0,0-1.319,1.691v.171l.333-.073A7.164,7.164,0,0,1,14.073,18.582Zm13.2-11.034a2.9,2.9,0,0,0-2.882,2.9v1.161a2.913,2.913,0,0,0,1.452,2.512l.29.167v1.839l-1.993.5a2.884,2.884,0,0,1,.832,2.024v1.563l6.385-3.361-2.9-.724,0-1.838.291-.167a2.915,2.915,0,0,0,1.453-2.513V10.6A3,3,0,0,0,27.38,7.55Zm-18.58,0a2.9,2.9,0,0,0-2.882,2.9v1.161a2.913,2.913,0,0,0,1.452,2.512l.29.167v1.839l-1.32.33,3.063,1.787L9.268,19.32l-.047.165,1.811-.4v-.429a2.883,2.883,0,0,1,.832-2.024l-1.993-.5,0-1.838.29-.167a2.914,2.914,0,0,0,1.453-2.513V10.6A3,3,0,0,0,8.8,7.55ZM18,6.387h0l.126,0A4.171,4.171,0,0,1,22.064,10.6v1.015a4.072,4.072,0,0,1-1.742,3.333v.278l2.323.581,2.323-.581v-.279a4.069,4.069,0,0,1-1.742-3.332V10.452a4.008,4.008,0,0,1,.427-1.808,6.387,6.387,0,0,0-11.329.047,4.305,4.305,0,0,1,.451,1.907v1.015a4.07,4.07,0,0,1-1.743,3.333v.278l2.324.581,2.322-.581v-.279a4.068,4.068,0,0,1-1.741-3.332V10.452A4.064,4.064,0,0,1,18,6.387Zm-6.49-3.064h0L9.653,5.179l.652,1.553a4.1,4.1,0,0,1,1.281.908A7.54,7.54,0,0,1,24.392,7.6l.034-.036.034-.036a4.061,4.061,0,0,1,1.226-.815l.659-1.542L24.491,3.323,22.858,4.386l-.312-.192a8.685,8.685,0,0,0-2.515-1.043l-.357-.086-.4-1.9H16.729l-.4,1.905-.357.086a8.659,8.659,0,0,0-2.515,1.043l-.312.192L11.508,3.324Z" transform="translate(0 0)" fill="#fff"/>
</svg>
