<svg id="Combined_Shape_3" data-name="Combined Shape 3" xmlns="http://www.w3.org/2000/svg" width="36" height="36" viewBox="0 0 36 36">
  <path id="Combined_Shape" data-name="Combined Shape" d="M34.8,35.4V32.9a1.7,1.7,0,0,0-1.7-1.7H26.9a1.7,1.7,0,0,0-1.7,1.7v2.5a.6.6,0,1,1-1.2,0V32.9A2.9,2.9,0,0,1,26.9,30h6.2A2.9,2.9,0,0,1,36,32.9v2.5a.6.6,0,1,1-1.2,0Zm-13.2,0V32.9a1.7,1.7,0,0,0-1.7-1.7H13.7A1.7,1.7,0,0,0,12,32.9v2.5a.6.6,0,1,1-1.2,0V32.9A2.9,2.9,0,0,1,13.7,30h6.2a2.9,2.9,0,0,1,2.9,2.9v2.5a.6.6,0,1,1-1.2,0ZM3,30a.6.6,0,0,1-.6-.6v-.7a1.822,1.822,0,0,1-.6.1A1.8,1.8,0,0,1,0,27V18.6a3.008,3.008,0,0,1,3-3H9.1a.6.6,0,0,0,.425-.175l6.7-6.7a1.661,1.661,0,0,1,2.348,2.348l-7.613,8.188a.6.6,0,0,0-.161.41V29.4a.6.6,0,0,1-.6.6Zm.6-10.2v9h6V19.671a1.792,1.792,0,0,1,.48-1.226l7.631-8.2.006-.006a.468.468,0,0,0,.008-.661.474.474,0,0,0-.652,0l-6.7,6.7a1.775,1.775,0,0,1-1.267.527H3a1.8,1.8,0,0,0-1.8,1.8V27a.6.6,0,0,0,1.2,0V19.8a.6.6,0,1,1,1.2,0Zm26.423,9.6h-.109a3.45,3.45,0,0,1-3.441-3.251l-.07-1.615a3.311,3.311,0,0,1,.931-2.446A3.593,3.593,0,0,1,29.9,21h.2a3.593,3.593,0,0,1,2.567,1.088,3.311,3.311,0,0,1,.931,2.446l-.073,1.615A3.449,3.449,0,0,1,30.086,29.4Zm0-1.2h.059a2.257,2.257,0,0,0,2.245-2.1l.072-1.615a2.126,2.126,0,0,0-.6-1.566,2.39,2.39,0,0,0-1.7-.72h-.188a2.394,2.394,0,0,0-1.708.72,2.127,2.127,0,0,0-.6,1.563l.072,1.617a2.257,2.257,0,0,0,2.246,2.1h.059ZM16.886,29.4h-.172a3.45,3.45,0,0,1-3.441-3.251l-.07-1.615a3.314,3.314,0,0,1,.931-2.446A3.6,3.6,0,0,1,16.7,21h.2a3.587,3.587,0,0,1,2.566,1.088,3.309,3.309,0,0,1,.931,2.446l-.07,1.615a3.449,3.449,0,0,1-3.44,3.251Zm-.063-1.2h.059a2.257,2.257,0,0,0,2.246-2.1l.072-1.615a2.126,2.126,0,0,0-.6-1.566,2.387,2.387,0,0,0-1.7-.72h-.188a2.4,2.4,0,0,0-1.708.72,2.127,2.127,0,0,0-.6,1.563l.072,1.617a2.258,2.258,0,0,0,2.247,2.1h.058ZM6,25.2V18a.6.6,0,1,1,1.2,0v7.2a.6.6,0,1,1-1.2,0Zm7.755-5.4a.6.6,0,1,1,0-1.2H34.231a.587.587,0,0,0,.57-.6V3.6H12.6v7.2a.6.6,0,1,1-1.2,0v-9A1.79,1.79,0,0,1,13.171,0h21.06A1.79,1.79,0,0,1,36,1.8V18a1.79,1.79,0,0,1-1.769,1.8ZM12.6,1.8v.6H34.8V1.8a.587.587,0,0,0-.57-.6H13.171A.588.588,0,0,0,12.6,1.8Zm19.8,15V8.25a.6.6,0,1,1,1.2,0V16.8a.6.6,0,0,1-1.2,0Zm-2.4,0V12a.6.6,0,0,1,1.2,0v4.8a.6.6,0,0,1-1.2,0Zm-2.4,0v-6a.6.6,0,1,1,1.2,0v6a.6.6,0,0,1-1.2,0Zm-2.4,0V14.4a.6.6,0,1,1,1.2,0v2.4a.6.6,0,0,1-1.2,0ZM6.623,15H6.514A3.45,3.45,0,0,1,3.074,11.75L3,10.134a3.311,3.311,0,0,1,.931-2.446A3.593,3.593,0,0,1,6.5,6.6h.2A3.593,3.593,0,0,1,9.269,7.688a3.311,3.311,0,0,1,.931,2.446l-.073,1.616A3.449,3.449,0,0,1,6.686,15Zm0-1.2h.059a2.257,2.257,0,0,0,2.246-2.1l.024-.571a2.675,2.675,0,0,1-1.564-1.1A5.378,5.378,0,0,1,4.251,11.21l.022.49a2.257,2.257,0,0,0,2.246,2.1h.059ZM6.5,7.8a2.391,2.391,0,0,0-1.7.72A2.107,2.107,0,0,0,4.2,10.011,3.643,3.643,0,0,0,7.058,8.64a.6.6,0,0,1,1.118.223,1.422,1.422,0,0,0,.81,1A2.123,2.123,0,0,0,8.4,8.519,2.39,2.39,0,0,0,6.7,7.8H6.5ZM22.92,14.16a.6.6,0,0,1,.12-.84l2.283-1.715L27.66,6.932a.659.659,0,0,1,.059-.1.6.6,0,0,1,.841-.115l1.893,1.418L32.5,5.067a.6.6,0,1,1,1,.666l-2.4,3.6-.02.027a.6.6,0,0,1-.84.12L28.418,8.112,26.34,12.268a.612.612,0,0,1-.18.212l-2.4,1.8a.6.6,0,0,1-.84-.121ZM24,6a.6.6,0,1,1,0-1.2h1.2a.6.6,0,0,1,0,1.2ZM14.4,6a.6.6,0,1,1,0-1.2h7.2a.6.6,0,1,1,0,1.2Z" transform="translate(0 0)" fill="#fff"/>
</svg>
