<svg xmlns="http://www.w3.org/2000/svg" width="28.045" height="28" viewBox="0 0 28.045 28">
  <path id="Combined_Shape" data-name="Combined Shape" d="M16.955,28a1.707,1.707,0,0,1-1.7-1.7V21.6a1.707,1.707,0,0,1,1.7-1.7H26.34a1.707,1.707,0,0,1,1.7,1.7V26.3a1.707,1.707,0,0,1-1.7,1.7Zm-.642-6.4V26.3a.643.643,0,0,0,.642.642H26.34a.643.643,0,0,0,.642-.642V21.6a.643.643,0,0,0-.642-.642H16.955A.643.643,0,0,0,16.313,21.6ZM1.7,28A1.707,1.707,0,0,1,0,26.3V11.045a1.707,1.707,0,0,1,1.7-1.7H11.09a1.707,1.707,0,0,1,1.7,1.7V26.3a1.707,1.707,0,0,1-1.7,1.7ZM1.063,11.045V26.3a.643.643,0,0,0,.642.642H11.09a.643.643,0,0,0,.642-.642V11.045a.643.643,0,0,0-.642-.642H1.7A.643.643,0,0,0,1.063,11.045Zm15.892,6.4a1.707,1.707,0,0,1-1.7-1.7V11.045a1.707,1.707,0,0,1,1.7-1.7H26.34a1.707,1.707,0,0,1,1.7,1.7v4.693a1.707,1.707,0,0,1-1.7,1.7Zm-.642-6.4v4.693a.643.643,0,0,0,.642.642H26.34a.643.643,0,0,0,.642-.642V11.045a.643.643,0,0,0-.642-.642H16.955A.643.643,0,0,0,16.313,11.045ZM1.7,6.929A1.707,1.707,0,0,1,0,5.224V1.7A1.707,1.707,0,0,1,1.7,0H26.34a1.707,1.707,0,0,1,1.7,1.7V5.224a1.707,1.707,0,0,1-1.7,1.706ZM1.063,1.7V5.224a.643.643,0,0,0,.642.642H26.34a.643.643,0,0,0,.642-.642V1.7a.643.643,0,0,0-.642-.642H1.7A.643.643,0,0,0,1.063,1.7Z" fill="#fff"/>
</svg>
