<svg id="Combined_Shape_2" data-name="Combined Shape 2" xmlns="http://www.w3.org/2000/svg" width="36" height="29.212" viewBox="0 0 36 29.212">
  <path id="Combined_Shape" data-name="Combined Shape" d="M.562,29.212a.562.562,0,1,1,0-1.123h1.53V25.33a12.826,12.826,0,0,1,1.3-5.62A3.726,3.726,0,0,1,6.7,17.665a1.289,1.289,0,0,0-.252-.124l-.007,0a1.494,1.494,0,0,1-.261-.128,1.855,1.855,0,0,1-.451-.428,2.083,2.083,0,0,1-.385-1.273V11.765A2.229,2.229,0,0,1,7.572,9.538H9.018a1.558,1.558,0,0,0,1.142-.5,2.85,2.85,0,0,1,2.23-.864l.121,0a2.634,2.634,0,0,1,.207,5.261v1.9a3.439,3.439,0,0,1-.908,2.33h3.73a6.832,6.832,0,0,0,4.379-1.59.551.551,0,0,1,.359-.131l.051,0a.561.561,0,0,1,.31.989,7.958,7.958,0,0,1-5.1,1.853H6.671A2.541,2.541,0,0,0,4.4,20.2,11.708,11.708,0,0,0,3.215,25.33v2.759H9.937a.562.562,0,0,1,0,1.123ZM9.333,15.751a1.944,1.944,0,0,1-.691,1.532,2.01,2.01,0,0,1-.289.2,2.326,2.326,0,0,0,.764.181c.04,0,.083,0,.147,0a2.334,2.334,0,0,0,2.332-2.33V13.444H9.333ZM6.468,11.765V15.71a.816.816,0,0,0,.654.895,1.113,1.113,0,0,0,.2.018.916.916,0,0,0,.587-.2.846.846,0,0,0,.3-.667V12.883a.562.562,0,0,1,.562-.562H12.51a1.512,1.512,0,0,0,0-3.024c-.054,0-.109,0-.166,0a1.757,1.757,0,0,0-1.358.5,2.686,2.686,0,0,1-1.968.863H7.571A1.1,1.1,0,0,0,6.468,11.765Zm5.982,17.446a.561.561,0,0,1,0-1.122h.7V23.762l-1.783.572a.611.611,0,0,1-.184.03.542.542,0,0,1-.5-.4.536.536,0,0,1,.346-.7l8.312-2.392a4.025,4.025,0,0,0,2.061-1.335l3.059-3.728-1.5-1.5-.58.722a.561.561,0,0,1-.789.085.561.561,0,0,1-.085-.789c.111-.138.22-.284.318-.413a7.641,7.641,0,0,1,.7-.842l1.931-1.931a.654.654,0,0,1,.077-.07H22.905a.562.562,0,0,1,0-1.123h2.306a.561.561,0,0,1,.332,1.014.971.971,0,0,1,.527.928l-.3,3.929a.578.578,0,0,1-.127.313L22.262,20.25a5.137,5.137,0,0,1-2.632,1.7l-1.739.476H26.03V20.473a.562.562,0,0,1,.562-.561h5.656a.562.562,0,0,1,.562.561v1.958h1.086a.984.984,0,0,0,.983-.983V4.042a.984.984,0,0,0-.983-.983H5.335A1.244,1.244,0,0,0,4.093,4.3V17.108a.562.562,0,0,1-1.123,0V4.3A2.368,2.368,0,0,1,5.335,1.937h1.2V.562A.562.562,0,0,1,7.092,0h3.173a.562.562,0,0,1,.561.562V1.937H28.144V.562A.562.562,0,0,1,28.706,0h3.173a.562.562,0,0,1,.562.562V1.937h1.454A2.108,2.108,0,0,1,36,4.042V21.448a2.108,2.108,0,0,1-2.105,2.105H14.27v4.536h1.4a.561.561,0,1,1,0,1.122Zm14.7-6.781h4.532v-1.4H27.153ZM23.7,13.467l1.045,1.045.172-2.263ZM29.267,1.936h2.05V1.123h-2.05Zm-21.614,0H9.7V1.123H7.653Zm10.4,10.1a.562.562,0,0,1-.562-.562V9.538a.562.562,0,0,1,.562-.562h2.867a.562.562,0,0,1,.561.562v1.937a.562.562,0,0,1-.561.562Zm.562-1.123h1.743V10.1H18.614Zm-.562-2.805a.562.562,0,0,1-.562-.561V5.611a.562.562,0,0,1,.562-.562h2.867a.562.562,0,0,1,.561.562V7.547a.562.562,0,0,1-.561.561Zm.562-1.122h1.743V6.172H18.614Zm4.29.154a.561.561,0,1,1,0-1.122h9.342a.561.561,0,1,1,0,1.122Z" transform="translate(0)" fill="#fff"/>
</svg>
