<svg xmlns="http://www.w3.org/2000/svg" width="44.3" height="36.003" viewBox="0 0 44.3 36.003">
  <g id="Combined_Shape_2" data-name="Combined Shape 2" transform="translate(0.15 0.15)">
    <path id="Combined_Shape" data-name="Combined Shape" d="M15.217,35.7a.686.686,0,0,1,0-1.372h.851V29.042l-2.179.7a.743.743,0,0,1-.224.037.664.664,0,0,1-.617-.488.655.655,0,0,1,.422-.856L23.63,25.51a4.911,4.911,0,0,0,2.518-1.632l3.74-4.556L28.05,17.485l-.71.883a.686.686,0,0,1-1.069-.86c.133-.167.265-.341.388-.5l.007-.01a9.6,9.6,0,0,1,.843-1.019l2.361-2.361a1.018,1.018,0,0,1,.095-.085h-1.97a.686.686,0,1,1,0-1.373h2.819a.686.686,0,0,1,.4,1.239,1.184,1.184,0,0,1,.644,1.134l-.364,4.8a.7.7,0,0,1-.155.382l-4.135,5.036a6.271,6.271,0,0,1-3.217,2.084l-2.126.581h9.948V25.024a.687.687,0,0,1,.687-.687h6.912a.687.687,0,0,1,.686.687v2.391h1.328a1.2,1.2,0,0,0,1.2-1.2V4.94a1.2,1.2,0,0,0-1.2-1.2H6.521A1.52,1.52,0,0,0,5,5.258V20.911a.686.686,0,0,1-1.372,0V5.258A2.894,2.894,0,0,1,6.521,2.367h1.46V.686A.687.687,0,0,1,8.667,0h3.879a.687.687,0,0,1,.686.686V2.367H34.4V.686A.687.687,0,0,1,35.085,0h3.878a.687.687,0,0,1,.687.686V2.367h1.778A2.577,2.577,0,0,1,44,4.94V26.213a2.577,2.577,0,0,1-2.573,2.574H17.441v5.543H19.15a.686.686,0,0,1,0,1.372Zm17.969-8.288h5.54V25.709h-5.54ZM28.965,16.459l1.278,1.277.21-2.765ZM35.771,2.366h2.507V1.373H35.771Zm-26.417,0h2.506V1.373H9.354ZM.686,35.7a.686.686,0,1,1,0-1.372H2.557V30.958a15.7,15.7,0,0,1,1.59-6.869,4.556,4.556,0,0,1,4.043-2.5,1.674,1.674,0,0,0-.306-.153l-.006,0a1.886,1.886,0,0,1-.323-.158A2.276,2.276,0,0,1,7,20.754,2.542,2.542,0,0,1,6.533,19.2V14.378a2.724,2.724,0,0,1,2.721-2.721h1.768a1.908,1.908,0,0,0,1.4-.612,3.484,3.484,0,0,1,2.725-1.057c.049,0,.1,0,.148,0a3.22,3.22,0,0,1,.253,6.43v2.322a4.205,4.205,0,0,1-1.11,2.848h4.559a8.353,8.353,0,0,0,5.352-1.944.672.672,0,0,1,.439-.16l.062,0a.686.686,0,0,1,.623.743.684.684,0,0,1-.243.466,9.731,9.731,0,0,1-6.233,2.264H8.153a3.108,3.108,0,0,0-2.773,1.73,14.31,14.31,0,0,0-1.451,6.265v3.373h8.216a.686.686,0,1,1,0,1.372ZM11.407,19.251a2.335,2.335,0,0,1-1.2,2.113,2.83,2.83,0,0,0,.934.221c.056,0,.113.005.18.005a2.852,2.852,0,0,0,2.849-2.848V16.431H11.407Zm-3.5-4.873V19.2a1,1,0,0,0,.8,1.094,1.268,1.268,0,0,0,.239.023,1.128,1.128,0,0,0,.718-.25,1.036,1.036,0,0,0,.371-.815V15.746a.687.687,0,0,1,.687-.687H15.29a1.848,1.848,0,0,0,0-3.7c-.072,0-.138,0-.2,0a2.15,2.15,0,0,0-1.662.616,3.284,3.284,0,0,1-2.406,1.054H9.254A1.35,1.35,0,0,0,7.906,14.378Zm14.157.333a.687.687,0,0,1-.686-.686V11.658a.687.687,0,0,1,.686-.686h3.5a.687.687,0,0,1,.686.686v2.368a.687.687,0,0,1-.686.686Zm.687-1.372h2.131v-.995H22.749Zm-.687-3.428a.688.688,0,0,1-.686-.687V6.857a.686.686,0,0,1,.686-.686h3.5a.686.686,0,0,1,.686.686V9.224a.688.688,0,0,1-.686.687Zm.687-1.372h2.131V7.544H22.749Zm5.245.188a.686.686,0,1,1,0-1.372H39.412a.686.686,0,1,1,0,1.372Z" transform="translate(0)" fill="#ff6177" stroke="#ff6177" stroke-miterlimit="10" stroke-width="0.3"/>
  </g>
</svg>
