<svg id="Fill_23" data-name="Fill 23" xmlns="http://www.w3.org/2000/svg" width="44" height="44" viewBox="0 0 44 44">
  <path id="Fill_1" data-name="Fill 1" d="M22.679,44h-.131a2.163,2.163,0,0,1-1.428-.539l-.628-.555a2.207,2.207,0,0,1-3.451-1.752,2.216,2.216,0,0,1-2.129-2.129A2.217,2.217,0,0,1,12.782,36.9a2.215,2.215,0,0,1-2.13-2.141L8.511,33.47l-.17.594H6.981L0,31.738V17.032H2.321l3.535,2.061,1.95-.488v-.34a4.972,4.972,0,0,1-2.129-4.072V12.775a4.97,4.97,0,0,1,4.97-4.968l.151,0,.049,0,.038,0L10.122,6l3.755-3.755,2.216,1.442a11.964,11.964,0,0,1,2.656-1.1L19.3,0H24.7l.546,2.585a12.064,12.064,0,0,1,2.657,1.1l2.216-1.442L33.881,6l-.775,1.814.057,0c.082,0,.168-.006.254-.006h.089a5.1,5.1,0,0,1,4.816,5.144v1.241a4.973,4.973,0,0,1-2.13,4.073v.339l2.99.749a3.457,3.457,0,0,1,.846.347l2.377-1.25H44V28.826L31.215,35.218a2.1,2.1,0,0,1,.011.212,2.194,2.194,0,0,1-2.131,2.178,2.171,2.171,0,0,1-2.129,2.131,2.169,2.169,0,0,1-2.128,2.129A2.168,2.168,0,0,1,22.679,44Zm-.171-3.265a2.2,2.2,0,0,1-.447.66l-.533.533.531.468a.736.736,0,0,0,.489.185h.131a.74.74,0,0,0,.474-1.309Zm-2.013-1.7a.8.8,0,0,0-.562.233l-1.247,1.247a.8.8,0,0,0,1.125,1.126l1.247-1.247a.8.8,0,0,0-.562-1.359Zm-6.387-7.807a2.2,2.2,0,0,1,2.207,2.138,2.215,2.215,0,0,1,2.128,2.128,2.218,2.218,0,0,1,2.129,2.129,2.208,2.208,0,0,1,1.905,1.24l1.584,1.32a1.17,1.17,0,0,0,.747.27.741.741,0,0,0,.74-.74.733.733,0,0,0-.266-.568L21.545,36.03l.909-1.091,3.855,3.212a.743.743,0,0,0,.473.172h.155a.741.741,0,0,0,.475-1.31L23.674,33.9l.91-1.091,3.848,3.207a.759.759,0,0,0,.488.177h.122a.764.764,0,0,0,.511-1.331l-6-5.4a1.442,1.442,0,0,0-.968-.363,1.424,1.424,0,0,0-.734.2l-2.642,1.584a2.376,2.376,0,0,1-3.6-2.038v-.14a2.366,2.366,0,0,1,1.313-2.127l3.544-1.772-1.046-.334a7.31,7.31,0,0,0-3.808-.173l-4.791,1.066L8.915,32.057l2.18,1.308.006-.008a2.068,2.068,0,0,1,.193-.235l1.247-1.247A2.23,2.23,0,0,1,14.108,31.226ZM18.365,36.9a.8.8,0,0,0-.562.232l-1.247,1.247a.8.8,0,0,0,1.126,1.126l1.247-1.247a.8.8,0,0,0-.563-1.358Zm-2.128-2.129a.8.8,0,0,0-.563.233l-1.247,1.247a.8.8,0,0,0,1.126,1.125L16.8,36.132a.8.8,0,0,0-.562-1.358Zm-2.129-2.129a.8.8,0,0,0-.562.233L12.3,34.125a.8.8,0,1,0,1.125,1.126L14.67,34a.8.8,0,0,0-.562-1.359ZM22.6,27.678a2.849,2.849,0,0,1,1.913.734l5.995,5.4c.042.038.083.078.122.119l11.956-5.979V19.963l-13.308,7-1.081-.027-4.459-1.274a3.017,3.017,0,0,0-.837-.117,3.081,3.081,0,0,0-1.375.322l-3.959,1.979a.952.952,0,0,0-.529.857v.14a.957.957,0,0,0,1.449.822l2.643-1.585A2.859,2.859,0,0,1,22.6,27.678Zm-14.278-5.5L5.815,32.18l1.4.465h.059L9.935,23.32v-.2Zm-6.9-3.721V30.714L4.465,31.73l2.576-10.3-5.1-2.977H1.419ZM17.2,22.711h0a8.708,8.708,0,0,1,2.659.413l3.212,1.027a4.484,4.484,0,0,1,1.054.151l4.363,1.247h.435l.176-.092V22.8a2.127,2.127,0,0,0-1.613-2.065L23.42,19.715l0-2.246.356-.205a3.562,3.562,0,0,0,1.776-3.071V12.953a3.669,3.669,0,0,0-3.439-3.725l-.133,0a3.551,3.551,0,0,0-3.524,3.549v1.419a3.556,3.556,0,0,0,1.775,3.069l.354.205v2.247l-4.064,1.016A2.126,2.126,0,0,0,14.9,22.8v.21l.407-.09A8.742,8.742,0,0,1,17.2,22.711ZM33.331,9.225a3.551,3.551,0,0,0-3.525,3.549v1.419a3.557,3.557,0,0,0,1.775,3.069l.355.205v2.247l-2.435.608A3.524,3.524,0,0,1,30.516,22.8v1.912l7.8-4.108-3.545-.886,0-2.246.355-.205A3.563,3.563,0,0,0,36.9,14.194V12.953a3.669,3.669,0,0,0-3.439-3.725Zm-22.709,0A3.551,3.551,0,0,0,7.1,12.775v1.419a3.557,3.557,0,0,0,1.775,3.069l.355.205v2.247l-1.614.4L11.354,22.3l-.027,1.312-.057.2,2.213-.492V22.8A3.523,3.523,0,0,1,14.5,20.324l-2.434-.608,0-2.246.355-.205a3.563,3.563,0,0,0,1.777-3.071V12.953a3.669,3.669,0,0,0-3.439-3.725ZM22,7.806h0l.151,0a5.1,5.1,0,0,1,4.815,5.144v1.241a4.974,4.974,0,0,1-2.129,4.073v.339l2.84.711,2.839-.711v-.34a4.972,4.972,0,0,1-2.129-4.072V12.775a4.905,4.905,0,0,1,.522-2.21,7.807,7.807,0,0,0-13.846.058,5.27,5.27,0,0,1,.551,2.331v1.241a4.973,4.973,0,0,1-2.13,4.073v.339l2.839.711,2.839-.711v-.34a4.973,4.973,0,0,1-2.128-4.072V12.775A4.968,4.968,0,0,1,22,7.806ZM14.066,4.063h0L11.8,6.33l.8,1.9a4.988,4.988,0,0,1,1.566,1.111A9.227,9.227,0,0,1,29.813,9.3l.041-.044.042-.044a4.964,4.964,0,0,1,1.5-1L32.2,6.327,29.934,4.062l-2,1.3-.382-.234a10.588,10.588,0,0,0-3.073-1.275l-.437-.1-.492-2.327H20.446l-.493,2.328-.436.1a10.606,10.606,0,0,0-3.074,1.274l-.382.235-2-1.3Z" fill="#ffba52"/>
</svg>
