<svg id="Group_22" data-name="Group 22" xmlns="http://www.w3.org/2000/svg" xmlns:xlink="http://www.w3.org/1999/xlink" width="26" height="27" viewBox="0 0 26 27">
  <defs>
    <clipPath id="clip-path">
      <path id="Clip_21" data-name="Clip 21" d="M13,27a4.773,4.773,0,0,1-4.724-3.857h2.5A2.368,2.368,0,0,0,13,24.635a2.348,2.348,0,0,0,1.339-.407,2.407,2.407,0,0,0,.888-1.085h2.5A4.773,4.773,0,0,1,13,27Zm13-5.786H0V18.532l.406-.362a6.161,6.161,0,0,0,.543-.526,16,16,0,0,0,1.264-1.522A21.757,21.757,0,0,0,3.761,13.8a16.73,16.73,0,0,0,1.37-3.1,15.127,15.127,0,0,0,.752-3.676l.391-5.289.542-.316a7.26,7.26,0,0,1,.8-.407A12.646,12.646,0,0,1,9.751.376,13.509,13.509,0,0,1,12.94,0h.18a13.866,13.866,0,0,1,2.031.15,14.82,14.82,0,0,1,1.686.332A8.992,8.992,0,0,1,18.115.9a8.517,8.517,0,0,1,.813.347c.126.057.237.113.331.166l.542.316.392,5.289a15.211,15.211,0,0,0,.737,3.631,19.046,19.046,0,0,0,1.279,3.028,20.049,20.049,0,0,0,1.55,2.35c.59.775.988,1.273,1.219,1.522s.434.445.616.617l.015.015.391.362v2.666ZM12.94,2.365a11.437,11.437,0,0,0-4.364.829L8.291,7.187a18.031,18.031,0,0,1-.723,3.841A16.789,16.789,0,0,1,6.185,14.4a29.185,29.185,0,0,1-1.551,2.5,22.6,22.6,0,0,1-1.489,1.9H22.87A23.028,23.028,0,0,1,21.4,16.92c-.468-.678-.984-1.524-1.535-2.516a17.329,17.329,0,0,1-1.37-3.375,18.7,18.7,0,0,1-.707-3.841L17.5,3.194a11.47,11.47,0,0,0-4.378-.829Z" fill="none"/>
    </clipPath>
  </defs>
  <path id="Clip_21-2" data-name="Clip 21" d="M13,27a4.773,4.773,0,0,1-4.724-3.857h2.5A2.368,2.368,0,0,0,13,24.635a2.348,2.348,0,0,0,1.339-.407,2.407,2.407,0,0,0,.888-1.085h2.5A4.773,4.773,0,0,1,13,27Zm13-5.786H0V18.532l.406-.362a6.161,6.161,0,0,0,.543-.526,16,16,0,0,0,1.264-1.522A21.757,21.757,0,0,0,3.761,13.8a16.73,16.73,0,0,0,1.37-3.1,15.127,15.127,0,0,0,.752-3.676l.391-5.289.542-.316a7.26,7.26,0,0,1,.8-.407A12.646,12.646,0,0,1,9.751.376,13.509,13.509,0,0,1,12.94,0h.18a13.866,13.866,0,0,1,2.031.15,14.82,14.82,0,0,1,1.686.332A8.992,8.992,0,0,1,18.115.9a8.517,8.517,0,0,1,.813.347c.126.057.237.113.331.166l.542.316.392,5.289a15.211,15.211,0,0,0,.737,3.631,19.046,19.046,0,0,0,1.279,3.028,20.049,20.049,0,0,0,1.55,2.35c.59.775.988,1.273,1.219,1.522s.434.445.616.617l.015.015.391.362v2.666ZM12.94,2.365a11.437,11.437,0,0,0-4.364.829L8.291,7.187a18.031,18.031,0,0,1-.723,3.841A16.789,16.789,0,0,1,6.185,14.4a29.185,29.185,0,0,1-1.551,2.5,22.6,22.6,0,0,1-1.489,1.9H22.87A23.028,23.028,0,0,1,21.4,16.92c-.468-.678-.984-1.524-1.535-2.516a17.329,17.329,0,0,1-1.37-3.375,18.7,18.7,0,0,1-.707-3.841L17.5,3.194a11.47,11.47,0,0,0-4.378-.829Z" fill="none"/>
  <g id="Group_22-2" data-name="Group 22" clip-path="url(#clip-path)">
    <path id="Fill_20" data-name="Fill 20" d="M0,33H32V0H0Z" transform="translate(-3 -3)" fill="#1c1c1c"/>
  </g>
</svg>
