<svg xmlns="http://www.w3.org/2000/svg" width="15" height="15" viewBox="0 0 15 15"><path d="M14.167,15A14.074,14.074,0,0,1,4.149,10.851,14.075,14.075,0,0,1,0,.833.834.834,0,0,1,.833,0H3.75a.834.834,0,0,1,.833.833,9.48,9.48,0,0,0,.474,2.974.8.8,0,0,1-.208.833L3.017,6.484a12.612,12.612,0,0,0,5.492,5.492l1.833-1.833a.861.861,0,0,1,.591-.242.956.956,0,0,1,.258.041,9.457,9.457,0,0,0,2.975.475A.834.834,0,0,1,15,11.25v2.917A.834.834,0,0,1,14.167,15Zm-3-3.326h0l-1,1a12.382,12.382,0,0,0,3.167.634V12.05a10.64,10.64,0,0,1-2.167-.375ZM1.692,1.667a12.858,12.858,0,0,0,.625,3.158l1-1.008a11.427,11.427,0,0,1-.374-2.15ZM15,7.5H13.333A5.84,5.84,0,0,0,7.5,1.667V0A7.509,7.509,0,0,1,15,7.5Zm-3.334,0H10A2.5,2.5,0,0,0,7.5,5V3.334A4.171,4.171,0,0,1,11.667,7.5Z" fill="#a0a8ae"/></svg>